PathFileType	4	(X/Y/Z)	/Users/itak/Documents/Research/Walk-IL/dataset/trc/00067_00006.trc
DataRate	CameraRate	NumFrames	NumMarkers	Units	OrigDataRate	OrigDataStartFrame	OrigNumFrames
100.000000	100.000000	4	53	mm	100.000000	510	680
Frame#	Time	RPSI			LPSI			L3			STRN			T10			C7			CLAV			RBAK			LBAK			LSHO			LUPA			LAEL			LAOL			LWTS			LWPS			LFRA			LIFD			LHPS			LHTS			RSHO			RUPA			RAEL			RAOL			RWTS			RWPS			RFRA			RIFD			RHTS			RHPS			RBHD			LFHD			RFHD			LBHD			LHIP			RHIP			RASI			LASI			LKNE			LTHI			LANK			LTIP			LTOE			LMT1			LMT5			LHEE			RKNE			RTHI			RANK			RTIP			RTOE			RMT1			RMT5			RHEE			
		X1	Y1	Z1	X2	Y2	Z2	X3	Y3	Z3	X4	Y4	Z4	X5	Y5	Z5	X6	Y6	Z6	X7	Y7	Z7	X8	Y8	Z8	X9	Y9	Z9	X10	Y10	Z10	X11	Y11	Z11	X12	Y12	Z12	X13	Y13	Z13	X14	Y14	Z14	X15	Y15	Z15	X16	Y16	Z16	X17	Y17	Z17	X18	Y18	Z18	X19	Y19	Z19	X20	Y20	Z20	X21	Y21	Z21	X22	Y22	Z22	X23	Y23	Z23	X24	Y24	Z24	X25	Y25	Z25	X26	Y26	Z26	X27	Y27	Z27	X28	Y28	Z28	X29	Y29	Z29	X30	Y30	Z30	X31	Y31	Z31	X32	Y32	Z32	X33	Y33	Z33	X34	Y34	Z34	X35	Y35	Z35	X36	Y36	Z36	X37	Y37	Z37	X38	Y38	Z38	X39	Y39	Z39	X40	Y40	Z40	X41	Y41	Z41	X42	Y42	Z42	X43	Y43	Z43	X44	Y44	Z44	X45	Y45	Z45	X46	Y46	Z46	X47	Y47	Z47	X48	Y48	Z48	X49	Y49	Z49	X50	Y50	Z50	X51	Y51	Z51	X52	Y52	Z52	X53	Y53	Z53	

511	5.100000000000001	-721.6036987304688	994.7244873046875	646.1095581054688	-587.9486083984375	990.793212890625	540.0921630859375	-644.7142333984375	1055.68798828125	583.8250122070312	-530.7567749023438	1244.104736328125	811.8396606445312	-633.6013793945312	1184.097900390625	560.8460693359375	-600.0579223632812	1450.319091796875	619.742919921875	-541.2844848632812	1359.166748046875	785.6248779296875	-693.2846069335938	1312.968505859375	584.1326904296875	-516.0704345703125	1412.598754882812	560.7412109375	-412.6249084472656	1414.446166992188	631.6216430664062	-343.3951721191406	1288.920288085938	591.0701904296875	-306.8162536621094	1075.608764648438	622.5912475585938	-403.7874450683594	1053.068115234375	586.1356811523438	-370.1187133789062	899.82958984375	807.8935546875	-325.4728088378906	857.2007446289062	749.9025268554688	-302.5622863769531	978.453369140625	679.2218017578125	-412.5397644042969	737.7771606445312	891.2426147460938	-335.1625671386719	794.7191772460938	811.1945190429688	-374.2516174316406	830.3751220703125	858.7692260742188	-742.9150390625	1416.018188476562	736.0348510742188	-809.7816162109375	1356.128295898438	737.3551635742188	-896.050048828125	1120.324829101562	677.4396362304688	-805.7786254882812	1077.919067382812	670.5521850585938	-876.613525390625	842.771728515625	768.4861450195312	-941.3547973632812	850.8319091796875	710.2152709960938	-918.213623046875	1040.254150390625	680.4127807617188	-889.5625	657.9387817382812	712.7235107421875	-891.2501220703125	735.218994140625	761.3980712890625	-951.8560791015625	756.5618286132812	719.160888671875	-573.5331420898438	1626.265625	636.6226196289062	-533.9833374023438	1657.922485351562	846.428955078125	-444.8536987304688	1655.819091796875	757.0003051757812	-663.4573974609375	1621.033813476562	740.8008422851562	-451.4325866699219	925.7418212890625	564.0162353515625	-747.4771118164062	926.993408203125	749.1751098632812	-661.00390625	948.486328125	839.345458984375	-435.9756164550781	930.2700805664062	690.0795288085938	-573.2822265625	461.8736267089844	618.1593627929688	-514.8085327148438	600.3270263671875	586.214111328125	-708.7411499023438	74.35069274902344	383.533935546875	-639.2022094726562	250.0809326171875	492.3552551269531	-726.8511352539062	42.35854721069336	581.152099609375	-774.150390625	42.90546417236328	532.3734741210938	-673.432861328125	45.58441543579102	482.8783874511719	-783.6839599609375	100.8433990478516	334.09228515625	-601.9800415039062	530.1026611328125	940.3904418945312	-678.5313110351562	780.1674194335938	872.467529296875	-546.9714965820312	51.79163360595703	1064.796020507812	-590.4612426757812	412.1697387695312	977.67236328125	-383.3027954101562	155.9622039794922	1147.740356445312	-395.152587890625	125.9395523071289	1086.92431640625	-475.5660095214844	108.8974456787109	1143.683227539062	-542.8390502929688	34.51351928710938	994.7686767578125	
512	5.11	-717.854248046875	993.6992797851562	658.2306518554688	-585.2935180664062	990.2625122070312	550.9823608398438	-641.6069946289062	1054.2900390625	595.1849975585938	-526.584228515625	1243.641723632812	821.8719482421875	-630.9457397460938	1182.698974609375	571.7899780273438	-597.8250122070312	1449.226318359375	629.6400756835938	-537.6275024414062	1358.59228515625	795.407470703125	-690.845458984375	1311.482299804688	595.122314453125	-514.2188110351562	1411.531127929688	570.0963745117188	-410.1736145019531	1413.746704101562	640.298828125	-341.0653076171875	1288.23779296875	599.4463500976562	-303.8724365234375	1075.052368164062	630.7797241210938	-401.1242980957031	1052.330078125	595.2471923828125	-364.7877197265625	898.5442504882812	816.2206420898438	-320.59716796875	856.1826782226562	757.6792602539062	-298.8598327636719	977.7385864257812	687.1283569335938	-405.4815979003906	736.3151245117188	899.7880249023438	-329.3749694824219	793.5509033203125	818.94384765625	-368.1892395019531	829.0005493164062	866.957275390625	-739.736572265625	1414.892700195312	747.0556640625	-806.4776611328125	1354.919799804688	748.9210815429688	-892.843017578125	1119.143676757812	689.6544189453125	-802.6397094726562	1076.746948242188	682.2478637695312	-873.12158203125	841.43359375	779.93310546875	-938.4320678710938	849.87060546875	722.2694091796875	-915.0537719726562	1039.15771484375	692.6807861328125	-887.0596313476562	656.77685546875	723.6589965820312	-888.1527099609375	733.9791870117188	772.5997924804688	-949.0628662109375	755.64501953125	730.9535522460938	-571.3037109375	1625.412841796875	645.9148559570312	-530.1455078125	1657.511108398438	855.3531494140625	-441.7175903320312	1655.326293945312	765.2293090820312	-660.4419555664062	1620.297607421875	750.7877807617188	-448.5919799804688	925.1810302734375	573.47705078125	-742.6920166015625	925.9848022460938	761.499267578125	-655.6039428710938	947.5777587890625	851.0049438476562	-431.9681701660156	929.602783203125	699.3914184570312	-569.801025390625	461.007568359375	624.1424560546875	-511.5440368652344	599.9361572265625	593.0842895507812	-708.0895385742188	76.5181884765625	384.5144348144531	-637.0870971679688	251.1930847167969	495.3760681152344	-726.8287353515625	42.50617218017578	580.80126953125	-773.76025390625	43.33640670776367	532.6852416992188	-673.0174560546875	45.34776306152344	483.1559753417969	-782.8687133789062	105.0753021240234	335.9440002441406	-593.160888671875	529.26611328125	950.2874755859375	-671.1188354492188	779.288818359375	883.7965087890625	-541.438720703125	49.8492431640625	1068.401245117188	-581.5648193359375	410.6060180664062	986.5711059570312	-375.2046508789062	149.1494445800781	1151.170776367188	-387.9626770019531	120.1434555053711	1090.265869140625	-468.4354858398438	104.147819519043	1147.11474609375	-538.2672119140625	33.77484893798828	998.1034545898438	
513	5.12	-713.93408203125	992.9313354492188	670.4469604492188	-582.469970703125	989.7845458984375	561.9427490234375	-638.2733764648438	1052.98046875	606.6726684570312	-522.30517578125	1243.321166992188	832.0282592773438	-628.134765625	1181.43017578125	582.8344116210938	-595.52197265625	1448.267700195312	639.6315307617188	-533.8641967773438	1358.150756835938	805.3129272460938	-688.294189453125	1310.113159179688	606.2088012695312	-512.2393798828125	1410.598266601562	579.5799560546875	-407.6326904296875	1413.15869140625	649.115234375	-338.6567077636719	1287.651000976562	607.9768676757812	-300.8818664550781	1074.574584960938	639.0386962890625	-398.4304809570312	1051.69873046875	604.4293823242188	-359.3428344726562	897.1863403320312	824.4329223632812	-315.6897888183594	855.126708984375	765.2821655273438	-295.1103820800781	977.0526733398438	694.9998168945312	-398.2333374023438	734.7543334960938	908.1386108398438	-323.4696350097656	792.3129272460938	826.4906005859375	-361.9678955078125	827.5398559570312	874.9845581054688	-736.46875	1413.857299804688	758.193359375	-803.0647583007812	1353.775268554688	760.6149291992188	-889.4851684570312	1118.00341796875	702.0316162109375	-799.3422241210938	1075.626953125	694.0825805664062	-869.4911499023438	840.13330078125	791.5589599609375	-935.3458862304688	848.9703369140625	734.4889526367188	-911.7299194335938	1038.11328125	705.1177978515625	-884.3721923828125	655.6727905273438	734.84716796875	-884.89306640625	732.8099365234375	784.0128173828125	-946.0902099609375	754.7791748046875	742.9301147460938	-569.010986328125	1624.681762695312	655.2695922851562	-526.176513671875	1657.267944335938	864.3095703125	-438.4947814941406	1654.971923828125	773.4751586914062	-657.3307495117188	1619.715209960938	760.8515014648438	-445.6436157226562	924.6036376953125	583.06494140625	-737.7745361328125	925.2716064453125	773.91748046875	-650.0757446289062	946.9105224609375	862.73974609375	-427.8693237304688	928.998046875	708.8010864257812	-565.954345703125	460.0643005371094	630.583984375	-508.0810852050781	599.5238647460938	600.3154296875	-707.432373046875	78.90177154541016	385.6605529785156	-634.7468872070312	252.4719848632812	498.6517333984375	-726.8280029296875	42.67849349975586	580.3649291992188	-773.323974609375	43.84157180786133	533.07080078125	-672.6431884765625	45.02553939819336	483.4104309082031	-781.9827270507812	109.7589111328125	338.1939086914062	-584.267333984375	528.6052856445312	960.0631713867188	-663.5021362304688	778.64892578125	895.1829833984375	-536.9238891601562	47.99844741821289	1071.33154296875	-572.7686767578125	409.1804809570312	995.3013916015625	-367.723388671875	141.4714508056641	1153.94921875	-381.5057373046875	113.720832824707	1092.932739257812	-462.0665893554688	98.93311309814453	1149.868286132812	-534.813720703125	33.36225891113281	1000.740173339844	
514	5.13	-709.8612670898438	992.488037109375	682.7031860351562	-579.4930419921875	989.3921508789062	572.9127807617188	-634.7322998046875	1051.815795898438	618.2389526367188	-517.9149780273438	1243.177001953125	842.2780151367188	-625.1867065429688	1180.3486328125	593.9406127929688	-593.147705078125	1447.489501953125	649.705322265625	-529.99267578125	1357.879638671875	815.3186645507812	-685.6405029296875	1308.915283203125	617.3732299804688	-510.1268005371094	1409.849853515625	589.1741943359375	-405.0016174316406	1412.723388671875	658.0506591796875	-336.1795349121094	1287.1962890625	616.6453857421875	-297.8619995117188	1074.212036132812	647.36865234375	-395.7221374511719	1051.212280273438	613.6768188476562	-353.7985534667969	895.7703857421875	832.4949951171875	-310.7726135253906	854.0542602539062	772.6687622070312	-291.3294067382812	976.426513671875	702.8174438476562	-390.81591796875	733.106201171875	916.2505493164062	-317.4636840820312	791.0247192382812	833.7861938476562	-355.5872802734375	826.009033203125	882.809326171875	-733.10888671875	1412.954467773438	769.4392700195312	-799.5410766601562	1352.736450195312	772.4279174804688	-885.96337890625	1116.93798828125	714.5706787109375	-795.871826171875	1074.59033203125	706.0592651367188	-865.7217407226562	838.897216796875	803.366455078125	-932.08154296875	848.1585693359375	746.8695678710938	-908.228759765625	1037.157592773438	717.7268676757812	-881.4851684570312	654.6534423828125	746.2798461914062	-881.4622802734375	731.732421875	795.6333618164062	-942.926513671875	753.9868774414062	755.0807495117188	-566.649658203125	1624.117797851562	664.6807250976562	-522.0672607421875	1657.223754882812	873.2930908203125	-435.1785888671875	1654.787231445312	781.7308349609375	-654.1170654296875	1619.3291015625	770.98876953125	-442.603271484375	924.0364379882812	592.7194213867188	-732.742431640625	924.92041015625	786.3754272460938	-644.4229125976562	946.5355834960938	874.4847412109375	-423.7001953125	928.486328125	718.2379150390625	-561.6326293945312	459.0316467285156	637.5859375	-504.3673706054688	599.089111328125	607.9610595703125	-706.7672729492188	81.57141876220703	387.0279235839844	-632.1199951171875	253.9548950195312	502.2602844238281	-726.8447875976562	42.85625457763672	579.857666015625	-772.8236083984375	44.44644165039062	533.5665283203125	-672.3214111328125	44.63027954101562	483.6379699707031	-781.00537109375	114.9910507202148	340.9476928710938	-575.4323120117188	528.1817626953125	969.7086791992188	-655.7802124023438	778.3021850585938	906.5724487304688	-533.3038330078125	46.33711242675781	1073.778930664062	-564.1731567382812	407.977783203125	1003.887390136719	-360.8881225585938	133.2464447021484	1156.275512695312	-375.7645874023438	106.9786758422852	1095.128540039062	-456.4335327148438	93.47107696533203	1152.146850585938	-532.3069458007812	33.34280395507812	1002.883728027344	
